{
  "accessors": [
    {
      "bufferView": 2,
      "componentType": 5126,
      "count": 1357,
      "max": [
        2.1832981109619141,
        2.343189001083374,
        4.4963502883911133
      ],
      "min": [
        -2.0383095741271973,
        -1.9984915256500244,
        -1.1323831081390381
      ],
      "type": "VEC3"
    },
    {
      "bufferView": 2,
      "byteOffset": 16284,
      "componentType": 5126,
      "count": 1357,
      "max": [
        0.99997735023498535,
        0.99870401620864868,
        0.9999922513961792
      ],
      "min": [
        -0.99919760227203369,
        -0.99910497665405273,
        -0.99943900108337402
      ],
      "type": "VEC3"
    },
    {
      "bufferView": 3,
      "componentType": 5126,
      "count": 1357,
      "max": [
        0.99929511547088623,
        0.99991250038146973,
        0.99579685926437378,
        1
      ],
      "min": [
        -0.99898278713226318,
        -0.99928861856460571,
        -0.99930524826049805,
        -1
      ],
      "type": "VEC4"
    },
    {
      "bufferView": 1,
      "componentType": 5126,
      "count": 1357,
      "max": [
        0.99071973562240601,
        0.99349051713943481
      ],
      "min": [
        0.0045825671404600143,
        0.0049542412161827087
      ],
      "type": "VEC2"
    },
    {
      "bufferView": 0,
      "componentType": 5125,
      "count": 5301,
      "max": [
        1356
      ],
      "min": [
        0
      ],
      "type": "SCALAR"
    },
    {
      "bufferView": 2,
      "byteOffset": 32568,
      "componentType": 5126,
      "count": 55,
      "max": [
        2.7037215232849121,
        2.6202547550201416,
        0.30730962753295898
      ],
      "min": [
        -2.3405327796936035,
        -2.1240975856781006,
        -0.20970368385314941
      ],
      "type": "VEC3"
    },
    {
      "bufferView": 2,
      "byteOffset": 33228,
      "componentType": 5126,
      "count": 55,
      "max": [
        0.90834987163543701,
        0.92998349666595459,
        0.99981653690338135
      ],
      "min": [
        -0.92863088846206665,
        -0.94397270679473877,
        -0.60508084297180176
      ],
      "type": "VEC3"
    },
    {
      "bufferView": 3,
      "byteOffset": 21712,
      "componentType": 5126,
      "count": 55,
      "max": [
        0.72977465391159058,
        0.97535264492034912,
        0.95076793432235718,
        -1
      ],
      "min": [
        -0.62106800079345703,
        -0.61411046981811523,
        -0.96003860235214233,
        -1
      ],
      "type": "VEC4"
    },
    {
      "bufferView": 1,
      "byteOffset": 10856,
      "componentType": 5126,
      "count": 55,
      "max": [
        0.91134470701217651,
        0.99990451335906982
      ],
      "min": [
        9.5450261142104864e-05,
        9.5450261142104864e-05
      ],
      "type": "VEC2"
    },
    {
      "bufferView": 0,
      "byteOffset": 21204,
      "componentType": 5125,
      "count": 264,
      "max": [
        54
      ],
      "min": [
        0
      ],
      "type": "SCALAR"
    },
    {
      "bufferView": 2,
      "byteOffset": 33888,
      "componentType": 5126,
      "count": 4,
      "max": [
        -0.29399022459983826,
        0.22423873841762543,
        2.6829943656921387
      ],
      "min": [
        -0.59652096033096313,
        -0.59965068101882935,
        1.2446526288986206
      ],
      "type": "VEC3"
    },
    {
      "bufferView": 2,
      "byteOffset": 33936,
      "componentType": 5126,
      "count": 4,
      "max": [
        0.93871527910232544,
        0.34469354152679443,
        -0.00018136031576432288
      ],
      "min": [
        0.93871527910232544,
        0.34469354152679443,
        -0.00018136031576432288
      ],
      "type": "VEC3"
    },
    {
      "bufferView": 3,
      "byteOffset": 22592,
      "componentType": 5126,
      "count": 4,
      "max": [
        0.0018478853162378073,
        -0.0055583161301910877,
        -0.99998283386230469,
        1
      ],
      "min": [
        0.0018478004494681954,
        -0.0055585475638508797,
        -0.99998289346694946,
        1
      ],
      "type": "VEC4"
    },
    {
      "bufferView": 1,
      "byteOffset": 11296,
      "componentType": 5126,
      "count": 4,
      "max": [
        0.99992179870605469,
        0.61198931932449341
      ],
      "min": [
        7.8218632552307099e-05,
        7.8218632552307099e-05
      ],
      "type": "VEC2"
    },
    {
      "bufferView": 0,
      "byteOffset": 22260,
      "componentType": 5125,
      "count": 6,
      "max": [
        3
      ],
      "min": [
        0
      ],
      "type": "SCALAR"
    },
    {
      "bufferView": 2,
      "byteOffset": 33984,
      "componentType": 5126,
      "count": 936,
      "max": [
        -2.2245655059814453,
        -2.3795974254608154,
        0.86500489711761475
      ],
      "min": [
        -5.7399740219116211,
        -5.6090865135192871,
        0.016126673668622971
      ],
      "type": "VEC3"
    },
    {
      "bufferView": 2,
      "byteOffset": 45216,
      "componentType": 5126,
      "count": 936,
      "max": [
        0.99749433994293213,
        0.99972009658813477,
        0.99981224536895752
      ],
      "min": [
        -0.99917936325073242,
        -0.99918115139007568,
        -0.99975848197937012
      ],
      "type": "VEC3"
    },
    {
      "bufferView": 3,
      "byteOffset": 22656,
      "componentType": 5126,
      "count": 936,
      "max": [
        0.99999648332595825,
        0.99961334466934204,
        0.99889427423477173,
        1
      ],
      "min": [
        -0.99996495246887207,
        -0.99923413991928101,
        -0.54354214668273926,
        1
      ],
      "type": "VEC4"
    },
    {
      "bufferView": 1,
      "byteOffset": 11328,
      "componentType": 5126,
      "count": 936,
      "max": [
        0.99175703525543213,
        0.999564528465271
      ],
      "min": [
        0.00043548710527829826,
        0.00043548710527829826
      ],
      "type": "VEC2"
    },
    {
      "bufferView": 0,
      "byteOffset": 22284,
      "componentType": 5125,
      "count": 3864,
      "max": [
        935
      ],
      "min": [
        0
      ],
      "type": "SCALAR"
    }
  ],
  "asset": {
    "extras": {
      "author": "ctperron (https://sketchfab.com/ctperron)",
      "license": "CC-BY-NC-4.0 (http://creativecommons.org/licenses/by-nc/4.0/)",
      "source": "https://sketchfab.com/3d-models/spooky-tree-2c9d935a7709402997e8232f7a4e05b1",
      "title": "Spooky Tree"
    },
    "generator": "Sketchfab-6.43.0",
    "version": "2.0"
  },
  "bufferViews": [
    {
      "buffer": 0,
      "byteLength": 37740,
      "byteOffset": 0,
      "name": "floatBufferViews",
      "target": 34963
    },
    {
      "buffer": 0,
      "byteLength": 18816,
      "byteOffset": 37740,
      "byteStride": 8,
      "name": "floatBufferViews",
      "target": 34962
    },
    {
      "buffer": 0,
      "byteLength": 56448,
      "byteOffset": 56556,
      "byteStride": 12,
      "name": "floatBufferViews",
      "target": 34962
    },
    {
      "buffer": 0,
      "byteLength": 37632,
      "byteOffset": 113004,
      "byteStride": 16,
      "name": "floatBufferViews",
      "target": 34962
    }
  ],
  "buffers": [
    {
      "byteLength": 150636,
      "uri": "scene.bin"
    }
  ],
  "extensionsUsed": [
    "KHR_materials_unlit"
  ],
  "images": [
    {
      "uri": "textures/Material_baseColor.png"
    },
    {
      "uri": "textures/Material.002_baseColor.png"
    },
    {
      "uri": "textures/Material.003_baseColor.png"
    }
  ],
  "materials": [
    {
      "doubleSided": true,
      "emissiveFactor": [
        0,
        0,
        0
      ],
      "extensions": {
        "KHR_materials_unlit": {}
      },
      "name": "Material",
      "pbrMetallicRoughness": {
        "baseColorFactor": [
          1,
          1,
          1,
          1
        ],
        "baseColorTexture": {
          "index": 0,
          "texCoord": 0
        },
        "metallicFactor": 0,
        "roughnessFactor": 1
      }
    },
    {
      "doubleSided": true,
      "emissiveFactor": [
        0,
        0,
        0
      ],
      "extensions": {
        "KHR_materials_unlit": {}
      },
      "name": "Material.002",
      "pbrMetallicRoughness": {
        "baseColorFactor": [
          1,
          1,
          1,
          1
        ],
        "baseColorTexture": {
          "index": 1,
          "texCoord": 0
        },
        "metallicFactor": 0,
        "roughnessFactor": 1
      }
    },
    {
      "doubleSided": true,
      "emissiveFactor": [
        1,
        0.047031113657536282,
        1
      ],
      "extensions": {
        "KHR_materials_unlit": {}
      },
      "name": "Material.001",
      "pbrMetallicRoughness": {
        "baseColorFactor": [
          0.92180637147051059,
          0.27255483967973188,
          0.76969860873880946,
          1
        ],
        "metallicFactor": 0,
        "roughnessFactor": 1
      }
    },
    {
      "doubleSided": true,
      "emissiveFactor": [
        0,
        0,
        0
      ],
      "extensions": {
        "KHR_materials_unlit": {}
      },
      "name": "Material.003",
      "pbrMetallicRoughness": {
        "baseColorFactor": [
          1,
          1,
          1,
          1
        ],
        "baseColorTexture": {
          "index": 2,
          "texCoord": 0
        },
        "metallicFactor": 0,
        "roughnessFactor": 1
      }
    }
  ],
  "meshes": [
    {
      "name": "Cylinder_Material_0",
      "primitives": [
        {
          "attributes": {
            "NORMAL": 1,
            "POSITION": 0,
            "TANGENT": 2,
            "TEXCOORD_0": 3
          },
          "indices": 4,
          "material": 0,
          "mode": 4
        }
      ]
    },
    {
      "name": "Plane_Material.002_0",
      "primitives": [
        {
          "attributes": {
            "NORMAL": 6,
            "POSITION": 5,
            "TANGENT": 7,
            "TEXCOORD_0": 8
          },
          "indices": 9,
          "material": 1,
          "mode": 4
        }
      ]
    },
    {
      "name": "Plane.001_Material.001_0",
      "primitives": [
        {
          "attributes": {
            "NORMAL": 11,
            "POSITION": 10,
            "TANGENT": 12,
            "TEXCOORD_0": 13
          },
          "indices": 14,
          "material": 2,
          "mode": 4
        }
      ]
    },
    {
      "name": "Sphere_Material.003_0",
      "primitives": [
        {
          "attributes": {
            "NORMAL": 16,
            "POSITION": 15,
            "TANGENT": 17,
            "TEXCOORD_0": 18
          },
          "indices": 19,
          "material": 3,
          "mode": 4
        }
      ]
    }
  ],
  "nodes": [
    {
      "children": [
        1
      ],
      "name": "RootNode (gltf orientation matrix)",
      "rotation": [
        -0.70710678118654746,
        -0,
        -0,
        0.70710678118654757
      ]
    },
    {
      "children": [
        2
      ],
      "name": "RootNode (model correction matrix)"
    },
    {
      "children": [
        3
      ],
      "matrix": [
        1,
        0,
        0,
        0,
        0,
        0,
        1,
        0,
        0,
        -1,
        0,
        0,
        0,
        0,
        0,
        1
      ],
      "name": "4be05b62214d49898f0cb249b13eabd9.fbx"
    },
    {
      "children": [
        4,
        6,
        8,
        10,
        12
      ],
      "name": "RootNode"
    },
    {
      "children": [
        5
      ],
      "matrix": [
        100,
        0,
        0,
        0,
        0,
        -1.6292067939183141e-05,
        -99.999999999998678,
        0,
        0,
        99.999999999998678,
        -1.6292067939183141e-05,
        0,
        0,
        100,
        0,
        1
      ],
      "name": "Cylinder"
    },
    {
      "mesh": 0,
      "name": "Cylinder_Material_0"
    },
    {
      "children": [
        7
      ],
      "matrix": [
        100,
        0,
        0,
        0,
        0,
        -1.6292067939183141e-05,
        -99.999999999998678,
        0,
        0,
        99.999999999998678,
        -1.6292067939183141e-05,
        0,
        0,
        0,
        0,
        1
      ],
      "name": "Plane"
    },
    {
      "mesh": 1,
      "name": "Plane_Material.002_0"
    },
    {
      "children": [
        9
      ],
      "matrix": [
        100,
        0,
        0,
        0,
        0,
        -1.6292067939183141e-05,
        -99.999999999998678,
        0,
        0,
        99.999999999998678,
        -1.6292067939183141e-05,
        0,
        0,
        0,
        0,
        1
      ],
      "name": "Plane.001"
    },
    {
      "mesh": 2,
      "name": "Plane.001_Material.001_0"
    },
    {
      "children": [
        11
      ],
      "matrix": [
        100,
        0,
        0,
        0,
        0,
        -1.6292067939183141e-05,
        -99.999999999998678,
        0,
        0,
        99.999999999998678,
        -1.6292067939183141e-05,
        0,
        400,
        0,
        -400,
        1
      ],
      "name": "Sphere"
    },
    {
      "mesh": 3,
      "name": "Sphere_Material.003_0"
    },
    {
      "children": [
        13
      ],
      "matrix": [
        77.477204109497237,
        -39.750003926729519,
        -49.165231934775761,
        0,
        33.562439064327506,
        91.760222713467428,
        -21.298491437355938,
        0,
        53.580273415775736,
        0.0004246741872507287,
        84.434319447191427,
        0,
        -1181.9178466796875,
        784.18548583984375,
        684.60516357421875,
        1
      ],
      "name": "Camera"
    },
    {
      "name": ""
    }
  ],
  "samplers": [
    {
      "magFilter": 9729,
      "minFilter": 9987,
      "wrapS": 10497,
      "wrapT": 10497
    }
  ],
  "scene": 0,
  "scenes": [
    {
      "name": "OSG_Scene",
      "nodes": [
        0
      ]
    }
  ],
  "textures": [
    {
      "sampler": 0,
      "source": 0
    },
    {
      "sampler": 0,
      "source": 1
    },
    {
      "sampler": 0,
      "source": 2
    }
  ]
}

